# xmcd
#
# Track frame offsets: 
#        150
#        12677
#        36300
#        53307
#        65777
#        78745
#        102127
#        120667
#        134632
#        149347
#        160690
#        182812
#        198985
#        213960
#
# Disc length: 3169 seconds
#
# Revision: 0
# Processed by: cddbd v1.4PL0 Copyright (c) Steve Scherf et al.
# Submitted via: ExactAudioCopy v0.90a11
#
DISCID=cc0c5f0e
DTITLE=Paolo Conte - Mocambo
DYEAR=1900
DGENRE=
TTITLE0=Via Con Me
TTITLE1=Gelato Al Limon
TTITLE2=Diavolo Rosso
TTITLE3=La Topolino Amaranto
TTITLE4=Genova Per Noi
TTITLE5=Alle Prese Con Una Verde Milonga
TTITLE6=Dancing
TTITLE7=La Ricostruzione Del Mocambo
TTITLE8=Questa Sporca Vita
TTITLE9=Bartali
TTITLE10=Le Chic Et Le Charme
TTITLE11=Avanti, Bionda
TTITLE12=La Fisarmonia Di Stradella
TTITLE13=Boogie
EXTD=
EXTT0=
EXTT1=
EXTT2=
EXTT3=
EXTT4=
EXTT5=
EXTT6=
EXTT7=
EXTT8=
EXTT9=
EXTT10=
EXTT11=
EXTT12=
EXTT13=
PLAYORDER=
